{
  "accessors": [
    {
      "bufferView": 2,
      "componentType": 5126,
      "count": 14217,
      "max": [
        12.446410179138184,
        13.808609962463379,
        43.101680755615234
      ],
      "min": [
        -10.540120124816895,
        -6.517970085144043,
        1.9602500200271606
      ],
      "type": "VEC3"
    },
    {
      "bufferView": 2,
      "byteOffset": 170604,
      "componentType": 5126,
      "count": 14217,
      "max": [
        0.99294751882553101,
        0.90871894359588623,
        0.99972391128540039
      ],
      "min": [
        -0.99952203035354614,
        -0.99962663650512695,
        -0.98375868797302246
      ],
      "type": "VEC3"
    },
    {
      "bufferView": 3,
      "componentType": 5126,
      "count": 14217,
      "max": [
        0.99999934434890747,
        0.87377727031707764,
        0.99999880790710449,
        -1
      ],
      "min": [
        -0.99999505281448364,
        -0.95869481563568115,
        -0.99998778104782104,
        -1
      ],
      "type": "VEC4"
    },
    {
      "bufferView": 1,
      "componentType": 5126,
      "count": 14217,
      "max": [
        0.99804997444152832,
        0.99804997444152832
      ],
      "min": [
        0.0019499999471008778,
        0.0019499999471008778
      ],
      "type": "VEC2"
    },
    {
      "bufferView": 0,
      "componentType": 5125,
      "count": 14217,
      "max": [
        14216
      ],
      "min": [
        0
      ],
      "type": "SCALAR"
    }
  ],
  "asset": {
    "extras": {
      "author": "hwkeyser (https://sketchfab.com/hwkeyser)",
      "license": "CC-BY-4.0 (http://creativecommons.org/licenses/by/4.0/)",
      "source": "https://sketchfab.com/models/51fd19a6475544b2a8a2e03091355e23",
      "title": "Henry-Blender-2"
    },
    "generator": "Sketchfab-3.28.5",
    "version": "2.0"
  },
  "bufferViews": [
    {
      "buffer": 0,
      "byteLength": 56868,
      "byteOffset": 0,
      "name": "floatBufferViews",
      "target": 34963
    },
    {
      "buffer": 0,
      "byteLength": 113736,
      "byteOffset": 56868,
      "byteStride": 8,
      "name": "floatBufferViews",
      "target": 34962
    },
    {
      "buffer": 0,
      "byteLength": 341208,
      "byteOffset": 170604,
      "byteStride": 12,
      "name": "floatBufferViews",
      "target": 34962
    },
    {
      "buffer": 0,
      "byteLength": 227472,
      "byteOffset": 511812,
      "byteStride": 16,
      "name": "floatBufferViews",
      "target": 34962
    }
  ],
  "buffers": [
    {
      "byteLength": 739284,
      "uri": "scene.bin"
    }
  ],
  "images": [
    {
      "uri": "textures/good-2_Material_u1_v1_baseColor.png"
    }
  ],
  "materials": [
    {
      "doubleSided": true,
      "emissiveFactor": [
        0,
        0,
        0
      ],
      "name": "good-2_Material_u1_v1",
      "pbrMetallicRoughness": {
        "baseColorFactor": [
          1,
          1,
          1,
          1
        ],
        "baseColorTexture": {
          "index": 0,
          "texCoord": 0
        },
        "metallicFactor": 0,
        "roughnessFactor": 0.59999999999999998
      }
    }
  ],
  "meshes": [
    {
      "name": "default_0",
      "primitives": [
        {
          "attributes": {
            "NORMAL": 1,
            "POSITION": 0,
            "TANGENT": 2,
            "TEXCOORD_0": 3
          },
          "indices": 4,
          "material": 0,
          "mode": 4
        }
      ]
    }
  ],
  "nodes": [
    {
      "children": [
        1
      ],
      "name": "RootNode (gltf orientation matrix)",
      "rotation": [
        -0.70710678118654746,
        -0,
        -0,
        0.70710678118654757
      ]
    },
    {
      "children": [
        2
      ],
      "name": "RootNode (model correction matrix)"
    },
    {
      "children": [
        3
      ],
      "name": "Root"
    },
    {
      "children": [
        4
      ],
      "matrix": [
        0.075940000000000007,
        0.051660000000000011,
        0,
        0,
        -0.051570000000000012,
        0.075820000000000012,
        0.0051400000000000013,
        0,
        0.0028900000000000011,
        -0.0042500000000000003,
        0.091700000000000031,
        0,
        0,
        0,
        -0.79352,
        1
      ],
      "name": "default"
    },
    {
      "mesh": 0,
      "name": "default_0"
    }
  ],
  "samplers": [
    {
      "magFilter": 9729,
      "minFilter": 9987,
      "wrapS": 10497,
      "wrapT": 10497
    }
  ],
  "scene": 0,
  "scenes": [
    {
      "name": "OSG_Scene",
      "nodes": [
        0
      ]
    }
  ],
  "textures": [
    {
      "sampler": 0,
      "source": 0
    }
  ]
}

